<svg width="24" height="25" viewBox="0 0 24 25" fill="none" xmlns="http://www.w3.org/2000/svg">
<path d="M0 12.5441C0 5.91668 5.37258 0.544098 12 0.544098C18.6274 0.544098 24 5.91668 24 12.5441C24 19.1715 18.6274 24.5441 12 24.5441C5.37258 24.5441 0 19.1715 0 12.5441Z" fill="#CDDEFF"/>
<path d="M16.712 12.5501C16.8227 12.3502 16.9985 12.1942 17.2102 12.1082C17.4219 12.0221 17.6567 12.0112 17.8755 12.0771L18.234 12.1851L18.33 12.2171C18.627 12.3258 18.8889 12.5128 19.0881 12.7585C19.2872 13.0041 19.4161 13.2991 19.461 13.6121C19.6095 14.6461 19.2775 15.8551 18.477 17.2416C17.6785 18.6246 16.7995 19.5156 15.832 19.9056C15.5211 20.0309 15.1808 20.0643 14.8515 20.0018C14.5223 19.9393 14.2178 19.7836 13.9745 19.5531L13.7035 19.2961L13.6425 19.2331C13.4918 19.0631 13.4035 18.8468 13.3921 18.6198C13.3808 18.3929 13.447 18.1689 13.58 17.9846L14.2585 17.0446L14.304 16.9876C14.3993 16.8796 14.5237 16.8014 14.6622 16.7622C14.8008 16.723 14.9478 16.7245 15.0855 16.7666L16.111 17.0801L16.1375 17.0851H16.159C16.2815 17.0716 16.5305 16.8241 16.8365 16.2941C17.1765 15.7051 17.2465 15.3606 17.153 15.2716L16.6315 14.7856L16.565 14.7191C16.399 14.5392 16.2895 14.3145 16.2502 14.0728C16.2109 13.8312 16.2435 13.5834 16.344 13.3601L16.675 12.6246L16.712 12.5501Z" fill="#107EDC"/>
<path d="M8.5697 17.5491H11.8492C12.4015 17.5491 12.8279 17.0606 13.1535 16.6146C13.4864 16.1586 14.0175 15.8787 14.3561 15.5871C15.3942 14.6933 13.9588 13.4196 12.5889 13.4196H10.5697C8.91285 13.4196 7.5697 14.7627 7.5697 16.4196V16.5491C7.5697 17.1014 8.01742 17.5491 8.5697 17.5491Z" fill="#107EDC"/>
<path fill-rule="evenodd" clip-rule="evenodd" d="M5.08997 8.40491C5.08997 7.30034 5.9854 6.40491 7.08997 6.40491H16.7458C17.8503 6.40491 18.7458 7.30034 18.7458 8.40491V10.5169H17.9458V8.40491C17.9458 7.74217 17.4085 7.20491 16.7458 7.20491H7.08997C6.42722 7.20491 5.88997 7.74217 5.88997 8.40491V15.5161C5.88997 16.1788 6.42722 16.7161 7.08997 16.7161H9.91928V17.5161H7.08997C5.9854 17.5161 5.08997 16.6206 5.08997 15.5161V8.40491Z" fill="#107EDC"/>
<circle cx="11.1372" cy="10.5115" r="2.03263" fill="#107EDC"/>
</svg>
