<svg width="32" height="35" viewBox="0 0 32 35" fill="none" xmlns="http://www.w3.org/2000/svg">
<g clip-path="url(#clip0_119_3674)">
<path d="M4.57628 14.31L5.60614 13.7711C6.573 13.2662 7.76688 13.5959 8.39924 14.5405L9.65533 16.4228C10.2022 17.2424 10.1874 18.323 9.61634 19.0942L8.02828 21.2403C8.34906 22.3001 8.91691 23.2985 9.7298 24.2361C10.5056 25.1452 11.4575 25.8926 12.5293 26.4341L14.7005 25.262C15.5244 24.8187 16.5421 24.9824 17.2257 25.6678L18.8212 27.264C19.6173 28.0614 19.7401 29.3325 19.1082 30.2389L18.4308 31.2104C17.7566 32.1772 16.6294 32.6845 15.4724 32.5402C12.74 32.2011 9.92246 30.2595 7.01865 26.7155C4.11065 23.166 2.71817 19.963 2.84299 17.1105C2.89524 15.9101 3.554 14.8443 4.57628 14.31Z" stroke="#606483" stroke-width="1.4" stroke-linejoin="round"/>
<path d="M23.9333 18.1117C23.7971 18.1117 23.6639 18.1515 23.5499 18.226L19.5443 20.8476C19.5443 20.8476 19.5442 20.8477 19.544 20.8477V18.8117C19.544 18.4251 19.2306 18.1117 18.844 18.1117C18.2862 18.1117 17.7537 17.8941 17.3631 17.5106C16.9729 17.1276 16.7562 16.6109 16.7562 16.0749V10.6011C16.7562 10.0651 16.9729 9.54842 17.3631 9.16539C17.7537 8.78194 18.2862 8.56426 18.844 8.56426H27.2076C27.7655 8.56426 28.298 8.78194 28.6886 9.16539C29.0787 9.54842 29.2955 10.0651 29.2955 10.6011V16.0749C29.2955 16.6109 29.0787 17.1276 28.6886 17.5106C28.298 17.8941 27.7655 18.1117 27.2076 18.1117H23.9333Z" stroke="#606483" stroke-width="1.4" stroke-linecap="round" stroke-linejoin="round"/>
</g>
<defs>
<clipPath id="clip0_119_3674">
<rect width="30.1558" height="33.6875" fill="white" transform="translate(0.978271 0.640625)"/>
</clipPath>
</defs>
</svg>
