<svg width="24" height="25" viewBox="0 0 24 25" fill="none" xmlns="http://www.w3.org/2000/svg">
<path d="M0 12.0322C0 5.40478 5.37258 0.032196 12 0.032196C18.6274 0.032196 24 5.40478 24 12.0322C24 18.6596 18.6274 24.0322 12 24.0322C5.37258 24.0322 0 18.6596 0 12.0322Z" fill="#FFA438"/>
<path d="M10.7274 4.82001C9.82721 4.82001 8.96394 5.17759 8.32745 5.81408C7.69095 6.45057 7.33337 7.31385 7.33337 8.21398C7.33337 9.11412 7.69095 9.97739 8.32745 10.6139C8.96394 11.2504 9.82721 11.608 10.7274 11.608C11.6275 11.608 12.4908 11.2504 13.1273 10.6139C13.7637 9.97739 14.1213 9.11412 14.1213 8.21398C14.1213 7.31385 13.7637 6.45057 13.1273 5.81408C12.4908 5.17759 11.6275 4.82001 10.7274 4.82001Z" fill="white"/>
<path d="M6.49247 12.4564C6.269 12.4555 6.04756 12.4988 5.84084 12.5836C5.63412 12.6685 5.44619 12.7934 5.28782 12.951C5.12946 13.1087 5.00377 13.296 4.91797 13.5024C4.83217 13.7087 4.78795 13.93 4.78784 14.1534C4.78784 15.5882 5.49464 16.6701 6.59938 17.3752C7.68715 18.0684 9.15334 18.3959 10.7273 18.3959C11.0752 18.3959 11.4197 18.3798 11.754 18.3475C11.0878 17.5197 10.7255 16.4887 10.7273 15.4262C10.7273 14.2977 11.1278 13.2625 11.7939 12.4564H6.49331H6.49247Z" fill="white"/>
<path d="M15.3942 19.2444C16.4068 19.2444 17.378 18.8421 18.094 18.1261C18.8101 17.41 19.2124 16.4388 19.2124 15.4262C19.2124 14.4135 18.8101 13.4423 18.094 12.7263C17.378 12.0102 16.4068 11.6079 15.3942 11.6079C14.3815 11.6079 13.4103 12.0102 12.6943 12.7263C11.9782 13.4423 11.5759 14.4135 11.5759 15.4262C11.5759 16.4388 11.9782 17.41 12.6943 18.1261C13.4103 18.8421 14.3815 19.2444 15.3942 19.2444ZM15.3942 13.3049C15.5067 13.3049 15.6146 13.3496 15.6941 13.4292C15.7737 13.5087 15.8184 13.6167 15.8184 13.7292V15.0019H17.0911C17.2037 15.0019 17.3116 15.0466 17.3911 15.1262C17.4707 15.2057 17.5154 15.3136 17.5154 15.4262C17.5154 15.5387 17.4707 15.6466 17.3911 15.7262C17.3116 15.8057 17.2037 15.8504 17.0911 15.8504H15.8184V17.1232C15.8184 17.2357 15.7737 17.3436 15.6941 17.4231C15.6146 17.5027 15.5067 17.5474 15.3942 17.5474C15.2816 17.5474 15.1737 17.5027 15.0942 17.4231C15.0146 17.3436 14.9699 17.2357 14.9699 17.1232V15.8504H13.6972C13.5846 15.8504 13.4767 15.8057 13.3972 15.7262C13.3176 15.6466 13.2729 15.5387 13.2729 15.4262C13.2729 15.3136 13.3176 15.2057 13.3972 15.1262C13.4767 15.0466 13.5846 15.0019 13.6972 15.0019H14.9699V13.7292C14.9699 13.6167 15.0146 13.5087 15.0942 13.4292C15.1737 13.3496 15.2816 13.3049 15.3942 13.3049Z" fill="white"/>
</svg>
