<svg width="48" height="45" viewBox="0 0 48 45" fill="none" xmlns="http://www.w3.org/2000/svg">
<ellipse cx="23.2354" cy="22.1833" rx="22.3235" ry="22" fill="#E7EEF6"/>
<path d="M41.4498 32.0798V14.0009C41.4498 13.1961 40.7872 12.5377 39.9772 12.5377H16.4616C15.6517 12.5377 14.989 13.1961 14.989 14.0009V32.0889H41.4498V32.0798Z" fill="#7991BE"/>
<path d="M43.9805 12.5377H39.4799C40.2898 12.5377 40.9525 13.1961 40.9525 14.0009V32.0889H45.4531V14.0009C45.4531 13.187 44.7996 12.5377 43.9805 12.5377Z" fill="#606483"/>
<path d="M41.4491 15.3636H18.8079C18.2649 15.3636 17.8323 15.7934 17.8323 16.333V31.193H41.4491V15.3636Z" fill="white"/>
<path d="M42.6093 31.1839V16.333C42.6093 15.7934 42.1675 15.3636 41.6337 15.3636H40.9526V31.193H42.6093V31.1839Z" fill="#F3F6F8"/>
<path d="M43.6493 32.9028V31.1836H13.4425C12.9547 31.1836 12.559 31.5768 12.559 32.0615C12.559 33.799 13.9763 35.2072 15.7251 35.2072H41.3299C42.6092 35.2164 43.6493 34.183 43.6493 32.9028Z" fill="#7991BE"/>
<path d="M46.9994 31.1836H43.3823V32.9028C43.3823 34.1739 42.3423 35.2072 41.063 35.2072H44.7169C46.4656 35.2072 47.883 33.799 47.883 32.0615C47.883 31.5768 47.4872 31.1836 46.9994 31.1836Z" fill="#606483"/>
<path d="M24.8368 31.1836C24.8368 32.2992 25.748 33.1954 26.8616 33.1954H33.5712C34.694 33.1954 35.596 32.2901 35.596 31.1836H24.8368Z" fill="#606483"/>
<path d="M32.8193 16.406H30.8424C29.8631 16.406 29.0669 17.1907 29.0669 18.1558V19.8424L29.4238 20.095H32.9749V16.6676L32.8193 16.406Z" fill="#F9CC5D"/>
<path d="M36.7088 25.5156L34.1737 24.785H30.2108L27.6756 25.5156C26.7696 25.7772 26.1472 26.598 26.1472 27.536V31.0897H38.2464V27.536C38.2372 26.598 37.6149 25.7772 36.7088 25.5156Z" fill="#E7EEF6"/>
<path d="M36.7089 25.5156L34.1738 24.785H32.2061L32.2244 25.7772L34.2104 26.3815C35.1164 26.6431 35.7388 27.4638 35.7388 28.4019V31.0987H38.2373V27.545C38.2373 26.598 37.615 25.7772 36.7089 25.5156Z" fill="#D8DEEB"/>
<path d="M32.5808 27.1935H31.812L31.1165 31.0719V31.0809H33.2764L32.5808 27.1935Z" fill="#606483"/>
<path d="M33.5884 24.9475V22.7467H30.8062V24.9475C30.8062 25.7051 32.1973 25.7682 32.1973 25.7682C32.1973 25.7682 33.5884 25.7051 33.5884 24.9475Z" fill="#FFDDCE"/>
<path d="M36.5258 31.0809V29.8632C36.5258 29.7009 36.3977 29.5746 36.2329 29.5746C36.0682 29.5746 35.9401 29.7009 35.9401 29.8632V31.0809H36.5258Z" fill="#B9CBEA"/>
<path d="M34.549 17.4251H34.5215C34.3751 17.4251 34.2653 17.3078 34.2653 17.1726C34.2653 16.7577 33.9175 16.4149 33.4965 16.4149H32.8192V20.1039H34.9608L35.3177 19.8514V18.1918C35.3177 17.7678 34.97 17.4251 34.549 17.4251Z" fill="#F7BD3C"/>
<path d="M30.2565 24.6319L29.8629 24.8032C29.6341 24.9025 29.5792 25.2001 29.7531 25.3715L30.8514 26.4538C30.9887 26.5891 31.2083 26.5981 31.3547 26.4719L32.215 25.7593L30.7507 24.677C30.6134 24.5868 30.4212 24.5597 30.2565 24.6319Z" fill="#B9CBEA"/>
<path d="M33.6242 24.695L32.2147 25.7683L33.0201 26.4538C33.1665 26.58 33.3862 26.571 33.5326 26.4357L34.6309 25.3804C34.8139 25.2091 34.759 24.9114 34.5302 24.8122L34.1275 24.6318C33.9628 24.5597 33.7706 24.5867 33.6242 24.695Z" fill="#B9CBEA"/>
<path d="M32.2241 25.7682L31.3729 26.4627L31.8031 27.1933H32.5719L33.002 26.4266L32.2241 25.7682Z" fill="#606483"/>
<path d="M28.4539 31.0809V29.8632C28.4539 29.7009 28.3258 29.5746 28.161 29.5746C27.9963 29.5746 27.8682 29.7009 27.8682 29.8632V31.0809H28.4539Z" fill="#B9CBEA"/>
<path d="M32.9749 21.3757V18.6338C32.2793 18.76 31.5563 18.7149 30.879 18.4985C30.5129 18.3812 30.1377 18.6518 30.1377 19.0306V19.3192C30.1377 19.6079 29.8997 19.8514 29.5977 19.8514H29.0669V20.7173C29.0669 20.9337 29.2499 21.1141 29.4696 21.1141C29.5428 21.1141 29.5977 21.1682 29.5977 21.2404C29.6709 22.4129 30.5495 23.369 31.6936 23.5855C32.4532 23.1165 32.9566 22.3047 32.9749 21.3757Z" fill="#FFDDCE"/>
<path d="M34.7866 19.8424C34.4937 19.8424 34.2466 19.6079 34.2466 19.3102V19.0216C34.2466 18.6428 33.8714 18.3722 33.5053 18.4894C33.2765 18.5616 33.0477 18.6157 32.8189 18.6518V21.3306C32.8006 22.2686 32.2698 23.0894 31.4918 23.5223C31.7115 23.5855 31.9494 23.6125 32.1874 23.6125C33.5602 23.6125 34.6859 22.5572 34.7775 21.2224C34.7775 21.1502 34.8415 21.0961 34.9056 21.0961C35.1252 21.0961 35.3083 20.9157 35.3083 20.6992V19.8424H34.7866Z" fill="#FFCBBE"/>
<path d="M31.9234 10.5991H30.7545V12.5286H31.9234V10.5991Z" fill="#606483"/>
<path d="M33.9391 9.42887C33.9391 10.8554 32.7702 12.0168 31.3344 12.0168C29.8986 12.0168 28.7297 10.8554 28.7297 9.42887C28.7297 8.00231 29.8986 6.84094 31.3344 6.84094C32.7794 6.84094 33.9391 7.99317 33.9391 9.42887Z" fill="#B6C2DA"/>
<path d="M32.5494 9.4284C32.5494 10.096 32.0064 10.6355 31.3345 10.6355C30.6627 10.6355 30.1196 10.096 30.1196 9.4284C30.1196 8.76085 30.6627 8.22131 31.3345 8.22131C32.0064 8.22131 32.5494 8.76085 32.5494 9.4284Z" fill="#606483"/>
<path d="M31.9142 9.42853C31.9142 9.74859 31.6565 10.0046 31.3344 10.0046C31.0122 10.0046 30.7545 9.74859 30.7545 9.42853C30.7545 9.10847 31.0122 8.85242 31.3344 8.85242C31.6565 8.85242 31.9142 9.10847 31.9142 9.42853Z" fill="#1E1D2E"/>
<path opacity="0.7" d="M31.987 8.98962C31.987 9.1085 31.8952 9.19995 31.7758 9.19995C31.6564 9.19995 31.5646 9.1085 31.5646 8.98962C31.5646 8.87074 31.6564 8.7793 31.7758 8.7793C31.8952 8.7793 31.987 8.87074 31.987 8.98962Z" fill="white"/>
<path opacity="0.1" d="M33.939 9.42875C33.939 8.00219 32.7701 6.84082 31.3344 6.84082V12.0167C32.7793 12.0167 33.939 10.8553 33.939 9.42875Z" fill="#D8DEEB"/>
<path d="M18.7582 8.11621H14.537C12.7327 8.11621 11.2677 9.55997 11.2677 11.3381V14.4459L14.0156 19.5194L19.1141 20.1557V9.02162L18.7582 8.11621Z" fill="#CB7B4F"/>
<path d="M21.3826 9.99228H21.333C21.0681 9.99228 20.8529 9.7802 20.8529 9.51918C20.8529 8.74428 20.2156 8.11621 19.4293 8.11621H18.7506V20.0904L20.8033 19.2013L22.7897 14.4459V11.3871C22.798 10.6122 22.1606 9.99228 21.3826 9.99228Z" fill="#B65D37"/>
<path d="M26.0496 29.2178C26.0496 27.6925 25.0481 26.3466 23.5748 25.8898L19.5863 23.9485L18.0633 23.3612L17.037 23.3286L12.2779 23.4917L7.92431 24.8539C6.44277 25.3107 5.44128 26.6647 5.44128 28.1819V39.9691C5.44128 40.6787 6.02066 41.2497 6.74074 41.2497H26.0496V29.2178Z" fill="#FFA04F"/>
<path d="M26.1496 24.854L21.796 23.4918L17.7487 23.3531L16.0685 23.0269L23.0686 26.1428C24.5418 26.5995 25.5433 27.9536 25.5433 29.4707V41.2756H27.3249C28.045 41.2756 28.6243 40.7047 28.6243 39.995V28.182C28.6243 26.6648 27.6228 25.3108 26.1496 24.854Z" fill="#EF8B35"/>
<path d="M19.702 23.2388V19.9189H14.3635V23.2388L17.0286 23.3285L19.702 23.2388Z" fill="#FFCBBE"/>
<path d="M20.3804 18.9894C19.412 18.9894 14.7688 19.2015 14.3798 18.916H14.4129C13.7342 18.6957 12.2526 14.446 12.2526 14.446H11.2677V16.0366C11.2677 16.4445 11.5988 16.7707 12.0126 16.7707C12.145 16.7707 12.2526 16.8686 12.2609 16.9991C12.3933 19.1117 13.9411 20.8491 15.9772 21.2978C17.7898 20.6044 20.3804 18.9894 20.3804 18.9894Z" fill="#FFCBBE"/>
<path d="M21.821 14.446C21.821 14.446 20.9189 18.8833 19.8925 19.022C19.636 19.0546 17.8482 19.1444 17.6164 19.2015C17.6164 19.2015 17.3764 20.5555 15.5059 21.1754C15.9859 21.3385 16.4991 21.4201 17.0371 21.4201C19.578 21.4201 21.6555 19.4706 21.8128 17.0073C21.821 16.8768 21.9286 16.7789 22.0611 16.7789C22.4749 16.7789 22.806 16.4526 22.806 16.0448V14.446H21.821Z" fill="#FFCBBE"/>
<path d="M17.0284 25.2618L15.6048 26.469C15.2572 26.7708 14.7192 26.7137 14.4378 26.3467L12.261 23.4836L13.0473 22.8066C13.428 22.4803 14.0074 22.4885 14.3798 22.8311L17.0284 25.2618Z" fill="#FFA04F"/>
<path d="M17.1361 21.5178L16.9706 23.141C16.9871 23.5978 17.6244 23.9486 18.0879 23.8996L21.6966 23.5244L21.6635 22.4966C21.6469 21.9909 21.2497 21.5831 20.7448 21.5504L17.1361 21.5178Z" fill="#EF8B35"/>
<path d="M13.5357 21.5423C13.0308 21.5831 12.6252 21.9909 12.617 22.4885L12.5839 23.5162L16.1925 23.8914C16.656 23.9404 17.1609 23.5896 17.1775 23.1329L17.1444 21.5096L13.5357 21.5423Z" fill="#FFA04F"/>
<path d="M23.0156 33.7967C23.0156 33.5436 23.2207 33.3385 23.4738 33.3385C23.7268 33.3385 23.9319 33.5436 23.9319 33.7967V41.2497H23.0156V33.7967Z" fill="#EF8B35"/>
<path d="M9.34241 33.8225C9.34241 33.5695 9.54753 33.3644 9.80057 33.3644C10.0536 33.3644 10.2587 33.5695 10.2587 33.8225V41.2756H9.34241V33.8225Z" fill="#EF8B35"/>
<path d="M40.4745 18.8594C41.0356 18.8594 41.4904 18.4112 41.4904 17.8582C41.4904 17.3053 41.0356 16.8571 40.4745 16.8571C39.9135 16.8571 39.4586 17.3053 39.4586 17.8582C39.4586 18.4112 39.9135 18.8594 40.4745 18.8594Z" fill="#DD636E"/>
</svg>
