<svg width="30" height="30" viewBox="0 0 30 30" fill="none" xmlns="http://www.w3.org/2000/svg">
<path d="M14.8513 11.5927C13.2125 11.5927 11.8752 12.93 11.8752 14.5688C11.8752 16.2076 13.2125 17.5449 14.8513 17.5449C16.49 17.5449 17.8274 16.2076 17.8274 14.5688C17.8274 12.93 16.49 11.5927 14.8513 11.5927ZM23.7774 14.5688C23.7774 13.3364 23.7885 12.1151 23.7193 10.8849C23.6501 9.45606 23.3241 8.18792 22.2793 7.14305C21.2322 6.09594 19.9663 5.77221 18.5374 5.703C17.305 5.63379 16.0837 5.64495 14.8535 5.64495C13.6211 5.64495 12.3999 5.63379 11.1697 5.703C9.74078 5.77221 8.47265 6.09818 7.42777 7.14305C6.38067 8.19016 6.05693 9.45606 5.98772 10.8849C5.91851 12.1174 5.92967 13.3386 5.92967 14.5688C5.92967 15.799 5.91851 17.0225 5.98772 18.2527C6.05693 19.6815 6.3829 20.9497 7.42777 21.9946C8.47488 23.0417 9.74078 23.3654 11.1697 23.4346C12.4021 23.5038 13.6233 23.4927 14.8535 23.4927C16.0859 23.4927 17.3072 23.5038 18.5374 23.4346C19.9663 23.3654 21.2344 23.0394 22.2793 21.9946C23.3264 20.9474 23.6501 19.6815 23.7193 18.2527C23.7908 17.0225 23.7774 15.8012 23.7774 14.5688V14.5688ZM14.8513 19.1479C12.3172 19.1479 10.2722 17.1028 10.2722 14.5688C10.2722 12.0348 12.3172 9.98966 14.8513 9.98966C17.3853 9.98966 19.4304 12.0348 19.4304 14.5688C19.4304 17.1028 17.3853 19.1479 14.8513 19.1479ZM19.618 10.8716C19.0263 10.8716 18.5485 10.3938 18.5485 9.80212C18.5485 9.21047 19.0263 8.73269 19.618 8.73269C20.2096 8.73269 20.6874 9.21047 20.6874 9.80212C20.6876 9.94261 20.66 10.0818 20.6064 10.2116C20.5527 10.3414 20.4739 10.4594 20.3746 10.5587C20.2752 10.6581 20.1573 10.7368 20.0274 10.7905C19.8976 10.8442 19.7585 10.8717 19.618 10.8716V10.8716Z" fill="#2F93E1"/>
</svg>
