<svg width="25" height="24" viewBox="0 0 25 24" fill="none" xmlns="http://www.w3.org/2000/svg">
<mask id="path-1-inside-1_101_1543" fill="white">
<path fill-rule="evenodd" clip-rule="evenodd" d="M22.5 9V12.0001V12.5V16.0001C22.5 17.1001 21.6 18.0001 20.5 18.0001H18.255V16.0001H12.4241H6.74769V18.0001H4.5C3.4 18.0001 2.5 17.1001 2.5 16.0001V12.5V12.0001V9C2.5 7.9 3.4 7 4.5 7H20.5C21.6 7 22.5 7.9 22.5 9Z"/>
</mask>
<path d="M18.255 18.0001H16.755V19.5001H18.255V18.0001ZM18.255 16.0001H19.755V14.5001H18.255V16.0001ZM6.74769 16.0001V14.5001H5.24769V16.0001H6.74769ZM6.74769 18.0001V19.5001H8.24769V18.0001H6.74769ZM24 12.0001V9H21V12.0001H24ZM24 12.5V12.0001H21V12.5H24ZM24 16.0001V12.5H21V16.0001H24ZM20.5 19.5001C22.4284 19.5001 24 17.9285 24 16.0001H21C21 16.2716 20.7716 16.5001 20.5 16.5001V19.5001ZM18.255 19.5001H20.5V16.5001H18.255V19.5001ZM16.755 16.0001V18.0001H19.755V16.0001H16.755ZM12.4241 17.5001H18.255V14.5001H12.4241V17.5001ZM6.74769 17.5001H12.4241V14.5001H6.74769V17.5001ZM8.24769 18.0001V16.0001H5.24769V18.0001H8.24769ZM4.5 19.5001H6.74769V16.5001H4.5V19.5001ZM1 16.0001C1 17.9285 2.57157 19.5001 4.5 19.5001V16.5001C4.22843 16.5001 4 16.2716 4 16.0001H1ZM1 12.5V16.0001H4V12.5H1ZM1 12.0001V12.5H4V12.0001H1ZM1 9V12.0001H4V9H1ZM4.5 5.5C2.57157 5.5 1 7.07157 1 9H4C4 8.72843 4.22843 8.5 4.5 8.5V5.5ZM20.5 5.5H4.5V8.5H20.5V5.5ZM24 9C24 7.07157 22.4284 5.5 20.5 5.5V8.5C20.7716 8.5 21 8.72843 21 9H24Z" fill="#606483" mask="url(#path-1-inside-1_101_1543)"/>
<path d="M6 3.20068H19V7.63836H6V3.20068Z" stroke="#606483" stroke-width="1.5" stroke-linecap="round" stroke-linejoin="round"/>
<path d="M19.25 15.5H5.75C5.35 15.5 5 15.15 5 14.75C5 14.35 5.35 14 5.75 14H19.25C19.65 14 20 14.35 20 14.75C20 15.15 19.65 15.5 19.25 15.5Z" fill="#606483"/>
<path d="M6 15.5327H19V22.0006H6V15.5327Z" stroke="#606483" stroke-width="1.5" stroke-linecap="round" stroke-linejoin="round"/>
<line x1="9.03894" y1="18.6538" x2="15.9611" y2="18.6538" stroke="#606483" stroke-width="1.5" stroke-linecap="round"/>
</svg>
