<svg width="16" height="16" viewBox="0 0 16 16" fill="none" xmlns="http://www.w3.org/2000/svg">
<path fill-rule="evenodd" clip-rule="evenodd" d="M15.1447 0.855263C15.3816 1.09211 15.5 1.38816 15.5 1.74342C15.5 2.09869 15.3816 2.39474 15.1447 2.63158L9.77632 8L15.1447 13.3684C15.3816 13.6053 15.5 13.9013 15.5 14.2566C15.5 14.6118 15.3816 14.9079 15.1447 15.1447C14.9079 15.3816 14.6118 15.5 14.2566 15.5C13.9013 15.5 13.6053 15.3816 13.3684 15.1447L8 9.77632L2.63158 15.1447C2.39474 15.3816 2.09869 15.5 1.74342 15.5C1.38816 15.5 1.09211 15.3816 0.855263 15.1447C0.61842 14.9079 0.5 14.6118 0.5 14.2566C0.5 13.9013 0.61842 13.6053 0.855263 13.3684L6.22368 8L0.855263 2.63158C0.61842 2.39474 0.5 2.09869 0.5 1.74342C0.5 1.38816 0.61842 1.09211 0.855263 0.855263C1.09211 0.61842 1.38816 0.5 1.74342 0.5C2.09869 0.5 2.39474 0.61842 2.63158 0.855263L8 6.22368L13.3684 0.855263C13.6053 0.61842 13.9013 0.5 14.2566 0.5C14.6118 0.5 14.9079 0.61842 15.1447 0.855263Z" fill="white"/>
</svg>
