<svg width="30" height="30" viewBox="0 0 30 30" fill="none" xmlns="http://www.w3.org/2000/svg">
<g opacity="0.6">
<path d="M15.3207 15.1241C12.849 15.1241 10.7947 13.1301 10.7947 10.7705C10.7947 8.32938 12.849 6.33447 15.3216 6.33447C17.8782 6.33447 19.8477 8.32853 19.8477 10.7705C19.8433 11.9291 19.3655 13.0385 18.5195 13.8551C17.6734 14.6716 16.5282 15.1284 15.3356 15.125L15.3207 15.1241V15.1241ZM15.3207 8.89886C14.2743 8.89886 13.4781 9.75309 13.4781 10.7714C13.4781 11.7879 14.2743 12.5614 15.3216 12.5614C16.4109 12.5614 17.1651 11.7879 17.1651 10.7714C17.166 9.75224 16.4109 8.89886 15.3207 8.89886ZM17.1231 18.7467L19.6806 21.1479C20.1837 21.6758 20.1837 22.4492 19.6806 22.938C19.1364 23.4658 18.2973 23.4658 17.8782 22.938L15.3216 20.496L12.849 22.938C12.5979 23.1819 12.2619 23.3035 11.884 23.3035C11.5909 23.3035 11.2558 23.1811 10.9618 22.938C10.4587 22.4492 10.4587 21.6758 10.9618 21.1471L13.5604 18.7459C12.6219 18.4759 11.7217 18.0936 10.8804 17.6078C10.2513 17.2822 10.1262 16.4688 10.4613 15.8576C10.8804 15.2474 11.6346 15.085 12.3057 15.4922C13.2144 16.0309 14.2584 16.3159 15.3229 16.3159C16.3875 16.3159 17.4314 16.0309 18.3402 15.4922C19.0112 15.085 19.8066 15.2474 20.1837 15.8576C20.5616 16.4688 20.3928 17.2814 19.8057 17.6078C19.0104 18.0965 18.0882 18.4628 17.124 18.7476L17.1231 18.7467V18.7467Z" fill="#2F93E1"/>
</g>
</svg>
